<svg width="135" height="39" viewBox="0 0 235 39" fill="none" xmlns="http://www.w3.org/2000/svg">
<path d="M34.3174 36.05C32.3174 37.55 30.3507 38.3 28.4174 38.3C26.4841 38.3 24.9507 37.8 23.8174 36.8C22.6841 35.8 22.1174 34.3 22.1174 32.3C22.1174 31.7333 22.1341 31.3 22.1674 31L21.6674 30.85C18.3674 35.7833 13.934 38.25 8.36738 38.25C3.00072 38.25 0.317383 35.4167 0.317383 29.75C0.317383 27.85 0.58405 25.3333 1.11738 22.2C1.65072 19.0333 2.10072 16.3667 2.46738 14.2C2.86738 12 3.13405 10.5 3.26738 9.7L0.617383 4.35C2.71738 3.15 4.53405 2.25 6.06738 1.65C7.63405 1.05 9.20072 0.749999 10.7674 0.749999C12.3341 0.749999 13.3841 1.16667 13.9174 2C14.484 2.8 14.7674 3.76666 14.7674 4.9C14.7674 6.03333 14.2007 9.66666 13.0674 15.8C11.9674 21.9333 11.4174 25.5167 11.4174 26.55C11.4174 29.1833 12.3174 30.5 14.1174 30.5C15.4507 30.5 16.9674 29.65 18.6674 27.95C20.3674 26.25 21.7507 23.9167 22.8174 20.95C22.1174 18.9167 21.7674 16.8167 21.7674 14.65C21.7674 10.7833 22.7174 7.5 24.6174 4.8C26.5507 2.1 29.2674 0.749999 32.7674 0.749999C34.7007 0.749999 36.2507 1.06667 37.4174 1.7C37.1174 3.5 36.5341 6.76667 35.6674 11.5C33.7674 21.5333 32.8174 27.3 32.8174 28.8C32.8174 32.0333 33.3174 34.45 34.3174 36.05ZM44.3248 27.85C42.2248 27.85 41.1748 26.6333 41.1748 24.2C41.1748 22.4333 41.6415 20.5333 42.5748 18.5C43.2748 18.7333 44.2915 18.85 45.6248 18.85C46.9915 18.85 49.1581 18.3167 52.1248 17.25C55.1248 16.1833 57.3915 15.65 58.9248 15.65C61.0248 15.65 62.0748 16.8667 62.0748 19.3C62.0748 21.0667 61.6081 22.9667 60.6748 25C59.9748 24.7667 58.9415 24.65 57.5748 24.65C56.2415 24.65 54.0748 25.1833 51.0748 26.25C48.1081 27.3167 45.8581 27.85 44.3248 27.85ZM73.8908 38.3C71.7242 38.3 70.1742 37.6833 69.2408 36.45C68.3075 35.1833 67.8408 33.3167 67.8408 30.85C67.8408 28.35 68.8908 21.3 70.9908 9.7L68.3408 4.35C72.1075 1.91667 75.5408 0.699999 78.6408 0.699999C81.2075 0.699999 82.4908 2.26667 82.4908 5.4C82.4908 6.33333 81.7908 10.4333 80.3908 17.7L82.7408 15.75C87.6075 11.6833 90.0408 8.21666 90.0408 5.35C90.0408 4.48333 89.9075 3.7 89.6408 3C92.1075 1.5 94.4408 0.749999 96.6408 0.749999C99.9075 0.749999 101.541 2.41667 101.541 5.75C101.541 9.48333 98.2242 13.2667 91.5908 17.1C94.6908 27.0333 98.0408 33.1667 101.641 35.5C100.907 36.2333 99.8075 36.8667 98.3408 37.4C96.9075 37.9667 95.6242 38.25 94.4908 38.25C92.2242 38.25 90.4075 37.6667 89.0408 36.5C87.6742 35.3333 86.4408 33.1833 85.3408 30.05L82.4408 21.9L79.3408 23.55C78.8742 26.2833 78.6408 28.0333 78.6408 28.8C78.6408 32.0333 79.1408 34.45 80.1408 36.05C78.1408 37.55 76.0575 38.3 73.8908 38.3ZM129.727 29.15L130.927 28.35C128.76 24.1833 127.677 19.6167 127.677 14.65C127.677 10.7833 128.627 7.5 130.527 4.8C132.46 2.1 135.177 0.749999 138.677 0.749999C140.51 0.749999 142.06 1.06667 143.327 1.7C142.994 3.56666 142.394 6.81666 141.527 11.45C139.66 21.4167 138.727 27.1333 138.727 28.6C138.727 31.7667 139.26 34.1333 140.327 35.7C138.86 36.6667 137.51 37.3333 136.277 37.7C135.044 38.0667 133.444 38.25 131.477 38.25C129.544 38.25 127.777 37.8333 126.177 37C124.61 36.1667 123.31 35.0667 122.277 33.7C121.277 32.3 120.427 30.5833 119.727 28.55C118.494 24.9833 117.744 20.45 117.477 14.95H116.677C115.144 21.8833 114.377 26.7333 114.377 29.5C114.377 32.2667 114.877 34.45 115.877 36.05C113.877 37.55 111.794 38.3 109.627 38.3C107.46 38.3 105.91 37.6833 104.977 36.45C104.044 35.1833 103.577 33.3167 103.577 30.85C103.577 28.35 104.627 21.3 106.727 9.7L104.077 4.35C107.81 1.95 111.144 0.749999 114.077 0.749999C117.01 0.749999 119.227 1.26667 120.727 2.3C122.227 3.3 123.277 4.78333 123.877 6.75C124.477 8.71667 124.91 10.8 125.177 13C125.477 15.1667 125.977 17.7833 126.677 20.85C127.41 23.9167 128.427 26.6833 129.727 29.15ZM145.583 21.7C145.583 15.3667 147.35 10.3 150.883 6.5C154.416 2.66667 159.25 0.749999 165.383 0.749999C167.35 0.749999 168.75 1.15 169.583 1.95C170.45 2.71666 170.883 3.91667 170.883 5.55C170.883 5.78333 170.85 6.23333 170.783 6.9C172.016 5.9 173.383 5.4 174.883 5.4C176.916 5.4 178.65 6.31667 180.083 8.15C181.55 9.95 182.283 12.5667 182.283 16C182.283 19.4333 181.733 22.5833 180.633 25.45C179.533 28.3167 178.066 30.6667 176.233 32.5C174.433 34.3333 172.366 35.75 170.033 36.75C167.733 37.75 165.35 38.25 162.883 38.25C157.55 38.25 153.333 36.7333 150.233 33.7C147.133 30.6333 145.583 26.6333 145.583 21.7ZM170.533 24.05C168.4 21.45 167.333 18.65 167.333 15.65C167.333 12.65 168 10.2333 169.333 8.4C168.733 8.3 168.133 8.25 167.533 8.25C165.166 8.25 163.116 8.96666 161.383 10.4C158.116 13.0667 156.483 16.7667 156.483 21.5C156.483 24.2 157.083 26.45 158.283 28.25C159.483 30.05 161.15 30.95 163.283 30.95C164.916 30.95 166.4 30.3167 167.733 29.05C169.1 27.75 170.033 26.0833 170.533 24.05ZM214.354 17.05L214.204 29.1H215.504C217.37 25.1333 219.087 20.9 220.654 16.4C222.22 11.8667 223.004 8.41667 223.004 6.05C223.004 5.11667 222.82 4.21667 222.454 3.35C224.987 1.61667 227.32 0.749999 229.454 0.749999C232.787 0.749999 234.454 2.63333 234.454 6.4C234.454 8.26666 233.937 10.6333 232.904 13.5C231.904 16.3333 230.404 19.9 228.404 24.2C226.404 28.4667 225.337 30.7667 225.204 31.1L225.904 33.85C223.037 36.7833 219.454 38.25 215.154 38.25C210.854 38.25 208.137 37.4667 207.004 35.9C204.204 37.4667 201.204 38.25 198.004 38.25C194.804 38.25 192.504 37.7833 191.104 36.85C189.704 35.9167 189.004 34.35 189.004 32.15L189.054 22.95C189.054 15.3167 188.12 9.93333 186.254 6.8C185.387 5.36667 184.32 4.21667 183.054 3.35C185.32 1.61667 187.92 0.749999 190.854 0.749999C193.52 0.749999 195.504 1.8 196.804 3.9C198.104 5.96666 198.954 8.45 199.354 11.35C199.687 13.9833 199.854 17.1 199.854 20.7L199.704 29.1H201.004C202.904 24.9667 204.504 20.0667 205.804 14.4C205.47 11.2 204.737 7.98333 203.604 4.75C204.837 3.78333 205.987 3.1 207.054 2.7C208.12 2.26666 209.537 2.05 211.304 2.05C214.937 2.05 216.754 3.73333 216.754 7.1C216.754 9.1 215.954 12.4167 214.354 17.05Z" fill="#3A591E"/>
</svg>
